<svg width="16" height="16" fill="none" xmlns="http://www.w3.org/2000/svg"><path fill-rule="evenodd" clip-rule="evenodd" d="M3.354 6.646 2.06 5.354 5.354 2.06l1.292 1.293-3.292 3.292ZM5 1 1 5v.707l2 2h.707l1.147-1.146v5.793l.5.5h4.656v.52l1.333 1.333h.707l2.667-2.666v-.707L13.383 10h-.707l-1.853 1.854h-4.97v-3.96h4.157v.48l1.333 1.333h.707l2.667-2.666v-.707L13.383 5h-.707l-1.813 1.814h-5.01V5.56l1.854-1.854V3l-2-2H5Zm6.07 7.02.627.627 1.96-1.96-.627-.626-1.96 1.96Zm0 5 .627.627 1.96-1.96-.627-.626-1.96 1.96Z" fill="#D67E00"/></svg>