<svg width="16" height="16" fill="none" xmlns="http://www.w3.org/2000/svg"><path fill-rule="evenodd" clip-rule="evenodd" d="M6.6 11.767a1.867 1.867 0 0 0-2.64-2.64c-1.042 1.098-2.856.812-2.947-.698A7 7 0 1 1 7.4 14.975c-1.594-.136-1.901-2.049-.8-3.208Zm.367 1.776c-.064-.297.021-.728.351-1.08a2.867 2.867 0 0 0-.01-4.043h-.001a2.867 2.867 0 0 0-4.054 0l-.01.01-.008.009c-.296.311-.664.387-.902.338a.398.398 0 0 1-.223-.115c-.036-.04-.089-.122-.099-.294a6 6 0 1 1 5.473 5.61c-.194-.016-.3-.08-.36-.135a.555.555 0 0 1-.157-.3ZM5 6a1 1 0 1 0 0-2 1 1 0 0 0 0 2Zm7 5a1 1 0 1 1-2 0 1 1 0 0 1 2 0ZM8 5a1 1 0 1 0 0-2 1 1 0 0 0 0 2Zm5 3a1 1 0 1 1-2 0 1 1 0 0 1 2 0Zm-2-2a1 1 0 1 0 0-2 1 1 0 0 0 0 2Z" fill="#424242"/></svg>